<svg width="704" height="601" viewBox="0 0 704 601" fill="none" xmlns="http://www.w3.org/2000/svg">
<path opacity="0.04" d="M936 601H333.646C333.646 492.82 333.427 384.64 333.208 276.46L482.758 297.003L483.414 6.7749L377.811 65.1265L377.374 182.704L468.547 199.532L468.984 271.652C437.063 267.062 405.36 262.473 373.438 257.665L373.657 185.982L323.37 176.585L236.788 228.817L236.569 376.772L187.594 404.964V254.168L233.071 226.632V168.498L178.411 137.246L91.6103 191.883V574.337H163.543V459.601L111.069 490.197V230.566L167.479 198.658L167.26 453.263L269.802 393.382V599.252H0V595.755H266.085V399.938L167.26 457.416V578.053H87.8935V189.916C118.066 170.902 148.238 151.889 178.411 132.876C197.87 144.021 217.329 155.167 236.788 166.313V224.446L322.057 173.088L323.369 172.869L373.875 182.048L374.094 62.941L487.131 0.437085L486.475 297.659L597.544 312.957V477.522L660.513 481.674L658.545 189.479L503.092 160.412C502.654 106.869 502.217 53.3247 501.78 0C614.161 31.6891 726.323 63.3782 838.705 95.2858C840.454 254.606 842.422 413.925 843.952 573.245L797.819 575.43L793.883 212.426L700.305 193.194L700.961 532.377L790.385 534.781V558.384H346.545V535.874H594.046L593.827 481.019L482.321 473.807L482.758 300.719L336.925 280.613L337.362 597.285H936V601ZM593.828 316.235L486.475 301.374L486.038 470.31L593.828 477.303V316.235ZM597.545 481.237V539.588H350.262V554.668H786.669V538.496L697.245 536.092C697.026 420.262 697.026 304.433 696.807 188.823C730.259 195.598 763.93 202.373 797.601 209.366L801.318 571.496L840.235 569.748L834.988 98.1269L505.497 4.80833L506.809 157.353L662.262 186.419C662.918 286.295 663.574 385.951 664.23 485.827L597.545 481.237ZM377.374 186.638L377.155 254.605L465.267 267.499L464.83 202.592L377.374 186.638ZM233.071 231.002L191.092 256.135V398.627L232.852 374.586L233.071 231.002ZM163.543 455.448L163.762 204.996L114.786 232.751V483.86L163.543 455.448Z" fill="black"/>
</svg>
