<svg width="21" height="21" viewBox="0 0 21 21" fill="none" xmlns="http://www.w3.org/2000/svg">
<path d="M20.5898 15.6174L19.6816 19.5549C19.5541 20.1116 19.0648 20.501 18.4918 20.501C8.63672 20.5002 0.621094 12.4846 0.621094 2.62914C0.621094 2.05648 1.01051 1.56664 1.56719 1.43968L5.50469 0.53148C6.07812 0.398589 6.66406 0.696246 6.90234 1.23929L8.71953 5.47757C8.93195 5.97679 8.78867 6.55843 8.36875 6.9014L6.26562 8.59007C7.59297 11.294 9.79141 13.4924 12.4961 14.8205L14.218 12.719C14.5573 12.2979 15.1434 12.1522 15.6426 12.3684L19.8809 14.1852C20.3906 14.4534 20.7227 15.0471 20.5898 15.6174Z" fill="white"/>
</svg>
