<svg width="52" height="52" viewBox="0 0 52 52" fill="none" xmlns="http://www.w3.org/2000/svg">
<g clip-path="url(#clip0_68_2390)">
<path d="M25.9949 0L24.2531 0.0609375L22.5215 0.233594L20.8 0.528125V5.86016L19.4035 6.27148L18.0375 6.78437L16.7121 7.38359L15.4375 8.0793L11.6645 4.31133L10.2375 5.32187L8.8918 6.42383L7.61719 7.61719L6.42891 8.88672L5.32187 10.2426L4.31133 11.6594L8.0793 15.4375L7.38867 16.7172L6.78437 18.0426L6.27656 19.4035L5.86016 20.8H0.528125L0.238672 22.5215L0.0609375 24.2582L0 26L0.0609375 27.7418L0.238672 29.4836L0.528125 31.2H5.86016L6.27656 32.6016L6.78437 33.9574L7.38867 35.2828L8.0793 36.5676L4.31133 40.3406L5.32187 41.7574L6.42891 43.1133L7.61719 44.3828L8.8918 45.5762L10.2375 46.6781L11.6645 47.6887L15.4375 43.9207L16.7121 44.6164L18.0375 45.2156L19.4035 45.7285L20.8 46.1398V51.4719L22.5215 51.7664L24.2531 51.9441L25.9949 52L27.7469 51.9441L29.4785 51.7664L31.2 51.4719V46.1398L32.5965 45.7285L33.9625 45.2156L35.2879 44.6164L36.5625 43.9207L40.3355 47.6887L41.7523 46.6781L43.1082 45.5762L44.3828 44.3828L45.5711 43.1133L46.6781 41.7574L47.6887 40.3406L43.9105 36.5676L44.6113 35.2828L45.2156 33.9574L45.7234 32.6016L46.1398 31.2H51.4719L51.7613 29.4836L51.9391 27.7418L52 26L51.9391 24.2582L51.7613 22.5215L51.4719 20.8H46.1398L45.7234 19.4035L45.2156 18.0426L44.6113 16.7172L43.9105 15.4375L47.6887 11.6594L46.6781 10.2426L45.5711 8.88672L44.3828 7.61719L43.1082 6.42383L41.7523 5.32187L40.3355 4.31133L36.5625 8.0793L35.2879 7.38359L33.9625 6.78437L32.5965 6.27148L31.2 5.86016V0.528125L29.4785 0.233594L27.7469 0.0609375L25.9949 0ZM25.1266 2.61523H26.8684L28.6 2.74727V7.98789L30.0879 8.26719L31.5402 8.66328L32.9621 9.18633L34.3383 9.82109L35.6484 10.5676L36.8977 11.4207L40.6047 7.71875L41.9199 8.85117L43.1488 10.075L44.2812 11.3953L40.5742 15.1023L41.4273 16.3465L42.1789 17.6668L42.8137 19.0379L43.3316 20.4547L43.7328 21.9172L44.007 23.3949H49.2527L49.3848 25.1316V26.8684L49.2527 28.6051H44.007L43.7328 30.0828L43.3316 31.5453L42.8137 32.9672L42.1789 34.3434L41.4273 35.6535L40.5742 36.9027L44.2812 40.6047L43.1488 41.925L41.9199 43.1539L40.6047 44.2812L36.8977 40.5793L35.6484 41.4324L34.3383 42.1789L32.9621 42.8187L31.5402 43.3367L30.0879 43.7328L28.6 44.0121V49.2527L26.8684 49.3848H25.1266L23.4 49.2527V44.0121L21.9121 43.7328L20.4547 43.3367L19.0379 42.8187L17.6617 42.1789L16.3516 41.4324L15.1023 40.5793L11.3953 44.2812L10.0801 43.1539L8.85117 41.925L7.71875 40.6047L11.4258 36.9027L10.5727 35.6535L9.82109 34.3434L9.18633 32.9672L8.66836 31.5453L8.26719 30.0828L7.98281 28.6051H2.74727L2.61523 26.8684V25.1316L2.74727 23.3949H7.98281L8.26719 21.9172L8.66836 20.4547L9.18633 19.0379L9.82109 17.6668L10.5727 16.3465L11.4258 15.1023L7.71875 11.3953L8.85117 10.075L10.0801 8.85117L11.3953 7.71875L15.1023 11.4207L16.3516 10.5676L17.6617 9.82109L19.0379 9.18633L20.4547 8.66328L21.9121 8.26719L23.4 7.98789V2.74727L25.1266 2.61523ZM25.9949 15.6051L24.7457 15.6762L23.5117 15.9047L22.3133 16.2805L21.1656 16.7934L20.0941 17.4383L19.1039 18.2203L18.2152 19.109L17.4383 20.0891L16.7883 21.1707L16.2754 22.3133L15.8996 23.5117L15.6762 24.7508L15.6 26L15.6762 27.2594L15.8996 28.4883L16.2754 29.6867L16.7883 30.8344L17.4383 31.9109L18.2152 32.9012L19.1039 33.7898L20.0941 34.5617L21.1656 35.2066L22.3133 35.7297L23.5117 36.0953L24.7457 36.3238L25.9949 36.4051L27.2543 36.3238L28.4883 36.0953L29.6867 35.7297L30.8344 35.2066L31.9059 34.5617L32.8961 33.7898L33.7848 32.9012L34.5566 31.9109L35.2117 30.8344L35.7246 29.6867L36.1004 28.4883L36.3238 27.2594L36.4 26L36.3238 24.7508L36.1004 23.5117L35.7246 22.3133L35.2117 21.1707L34.5566 20.0891L33.7848 19.109L32.8961 18.2203L31.9059 17.4383L30.8344 16.7934L29.6867 16.2805L28.4883 15.9047L27.2543 15.6762L25.9949 15.6051ZM25.4719 18.2203H26.5281L27.5895 18.3625L28.6102 18.652L29.5902 19.0734L30.4992 19.627L31.3219 20.3023L32.048 21.0742L32.6625 21.9477L33.1551 22.8922L33.5105 23.8977L33.7289 24.9437L33.7949 26L33.7289 27.0664L33.5105 28.1023L33.1551 29.1078L32.6625 30.0523L32.048 30.9258L31.3219 31.7027L30.4992 32.373L29.5902 32.9266L28.6102 33.3531L27.5895 33.6375L26.5281 33.7797H25.4719L24.4105 33.6375L23.3848 33.3531L22.4098 32.9266L21.5008 32.373L20.673 31.7027L19.952 30.9258L19.3375 30.0523L18.8449 29.1078L18.4895 28.1023L18.2711 27.0664L18.2051 26L18.2711 24.9437L18.4895 23.8977L18.8449 22.8922L19.3375 21.9477L19.952 21.0742L20.673 20.3023L21.5008 19.627L22.4098 19.0734L23.3848 18.652L24.4105 18.3625L25.4719 18.2203Z" fill="white"/>
</g>
<defs>
<clipPath id="clip0_68_2390">
<rect width="52" height="52" fill="white"/>
</clipPath>
</defs>
</svg>
