<svg width="75" height="74" viewBox="0 0 75 74" fill="none" xmlns="http://www.w3.org/2000/svg">
<path d="M50.291 43.0703C52.459 39.6594 53.7309 35.6125 53.7309 31.2621C53.7309 19.107 43.8883 9.25 31.7477 9.25C19.5926 9.25 9.75 19.107 9.75 31.2621C9.75 43.4172 19.5926 53.2742 31.7332 53.2742C36.1414 53.2742 40.2461 51.9734 43.6859 49.7477L44.6832 49.0539L60.3793 64.75L65.25 59.7926L49.5684 44.0965L50.291 43.0703ZM44.0617 18.9625C47.3426 22.2434 49.1492 26.6082 49.1492 31.2477C49.1492 35.8871 47.3426 40.252 44.0617 43.5328C40.7809 46.8137 36.416 48.6203 31.7766 48.6203C27.1371 48.6203 22.7723 46.8137 19.4914 43.5328C16.2105 40.252 14.4039 35.8871 14.4039 31.2477C14.4039 26.6082 16.2105 22.2434 19.4914 18.9625C22.7723 15.6816 27.1371 13.875 31.7766 13.875C36.416 13.875 40.7809 15.6816 44.0617 18.9625Z" fill="#1D478E"/>
</svg>
