<svg width="60" height="60" viewBox="0 0 60 60" fill="none" xmlns="http://www.w3.org/2000/svg">
<path d="M54 50.8667H7V54H54V50.8667Z" stroke="white" stroke-width="2" stroke-linejoin="round"/>
<path d="M8.56689 50.8666V13.2666H30.5002V50.8666" stroke="white" stroke-width="2" stroke-linejoin="round"/>
<path d="M52.4333 50.8667H30.5V30.5L52.4333 38.3333V50.8667Z" stroke="white" stroke-width="2" stroke-linejoin="round"/>
<path d="M47.7332 36.6571V24.2334H43.0332V34.9729" stroke="white" stroke-width="2" stroke-linejoin="round"/>
<path d="M50.0836 7C49.0449 7 48.0486 7.41265 47.3141 8.14717C46.5796 8.88168 46.167 9.8779 46.167 10.9167C46.1685 11.2068 46.2026 11.4958 46.2688 11.7783C45.5738 11.9332 44.9523 12.3202 44.5066 12.8755C44.061 13.4308 43.8177 14.1213 43.817 14.8333C43.8192 15.4758 44.0188 16.102 44.3888 16.6272C43.9731 16.8205 43.623 17.1312 43.3817 17.521C43.1404 17.9108 43.0184 18.3626 43.0306 18.8209C43.0429 19.2792 43.1889 19.7239 43.4508 20.1002C43.7126 20.4765 44.0788 20.768 44.5042 20.9388C44.9297 21.1096 45.3958 21.1522 45.8451 21.0615C46.2945 20.9707 46.7075 20.7504 47.0333 20.4279C47.359 20.1053 47.5833 19.6945 47.6785 19.2461C47.7738 18.7976 47.7357 18.3311 47.5691 17.904C48.2783 17.7611 48.9162 17.3773 49.3745 16.8175C49.8329 16.2578 50.0834 15.5568 50.0836 14.8333C51.1224 14.8333 52.1186 14.4207 52.8531 13.6862C53.5876 12.9517 54.0003 11.9554 54.0003 10.9167C54.0003 9.8779 53.5876 8.88168 52.8531 8.14717C52.1186 7.41265 51.1224 7 50.0836 7Z" stroke="white" stroke-width="2" stroke-linejoin="round"/>
<path d="M43.0332 27.3667H47.7332" stroke="white" stroke-width="2" stroke-linejoin="round"/>
<path d="M10.1333 13.2667V7H28.9333V13.2667" stroke="white" stroke-width="2" stroke-linejoin="round"/>
<path d="M33.6333 50.8668V43.0334H39.9V50.8668" stroke="white" stroke-width="2" stroke-linejoin="round"/>
<path d="M43.0332 50.8668V43.0334H49.2999V50.8668" stroke="white" stroke-width="2" stroke-linejoin="round"/>
<path d="M27.3669 16.3999H11.7002V19.5332H27.3669V16.3999Z" stroke="white" stroke-width="2" stroke-linejoin="round"/>
<path d="M27.3669 22.6667H11.7002V25.8001H27.3669V22.6667Z" stroke="white" stroke-width="2" stroke-linejoin="round"/>
<path d="M27.3669 28.9333H11.7002V32.0667H27.3669V28.9333Z" stroke="white" stroke-width="2" stroke-linejoin="round"/>
<path d="M27.3669 35.2H11.7002V38.3333H27.3669V35.2Z" stroke="white" stroke-width="2" stroke-linejoin="round"/>
<path d="M8.56689 41.4666H30.5002" stroke="white" stroke-width="2" stroke-linejoin="round"/>
<path d="M11.7002 50.8666V41.4666" stroke="white" stroke-width="2" stroke-linejoin="round"/>
<path d="M14.8335 50.8666V41.4666" stroke="white" stroke-width="2" stroke-linejoin="round"/>
<path d="M17.9668 50.8666V41.4666" stroke="white" stroke-width="2" stroke-linejoin="round"/>
<path d="M21.1001 50.8666V41.4666" stroke="white" stroke-width="2" stroke-linejoin="round"/>
<path d="M24.2334 50.8666V41.4666" stroke="white" stroke-width="2" stroke-linejoin="round"/>
<path d="M27.3667 50.8666V41.4666" stroke="white" stroke-width="2" stroke-linejoin="round"/>
<path d="M12.4834 10.1333H14.0501" stroke="white" stroke-width="2" stroke-linejoin="round"/>
<path d="M15.6167 10.1333H17.1834" stroke="white" stroke-width="2" stroke-linejoin="round"/>
<path d="M18.75 10.1333H20.3167" stroke="white" stroke-width="2" stroke-linejoin="round"/>
<path d="M21.8833 10.1333H23.45" stroke="white" stroke-width="2" stroke-linejoin="round"/>
<path d="M25.0166 10.1333H26.5833" stroke="white" stroke-width="2" stroke-linejoin="round"/>
</svg>
