<svg width="60" height="60" viewBox="0 0 60 60" fill="none" xmlns="http://www.w3.org/2000/svg">
<path d="M7 21.2188V47.6562C7 50.0062 9.05717 52.0625 11.4062 52.0625H12.875V16.8125H11.4062C9.05717 16.8125 7 18.8687 7 21.2188ZM49.5938 16.8125H48.125V52.0625H49.5938C51.9428 52.0625 54 50.0053 54 47.6562V21.2188C54 18.8687 51.9437 16.8125 49.5938 16.8125ZM42.25 12.4062C42.25 10.0572 40.1937 8 37.8438 8H23.1562C20.8062 8 18.75 10.0572 18.75 12.4062V16.8125H15.8125V52.0625H45.1875V16.8125H42.25V12.4062ZM23.1562 12.4062H37.8438V16.8125H23.1562V12.4062ZM39.3125 36.6406C39.3125 37.0445 38.982 37.375 38.5781 37.375H33.4375V42.5156C33.4375 42.9172 33.1047 43.25 32.7031 43.25H28.2969C27.893 43.25 27.5625 42.9195 27.5625 42.5156V37.375H22.4219C22.018 37.375 21.6875 37.0445 21.6875 36.6406V32.2344C21.6875 31.8305 22.018 31.5 22.4219 31.5H27.5625V26.3594C27.5625 25.9555 27.893 25.625 28.2969 25.625H32.7031C33.107 25.625 33.4375 25.9555 33.4375 26.3594V31.5H38.5781C38.982 31.5 39.3125 31.8305 39.3125 32.2344V36.6406Z" fill="white"/>
</svg>
