<svg width="22" height="22" viewBox="0 0 22 22" fill="none" xmlns="http://www.w3.org/2000/svg">
<path d="M15.1267 6.18774C15.0623 6.25165 15.0111 6.32769 14.9762 6.41146C14.9413 6.49524 14.9234 6.5851 14.9234 6.67586C14.9234 6.76662 14.9413 6.85648 14.9762 6.94026C15.0111 7.02404 15.0623 7.10007 15.1267 7.16399L18.2892 10.3265H2.10547C1.92313 10.3265 1.74826 10.3989 1.61933 10.5279C1.4904 10.6568 1.41797 10.8317 1.41797 11.014C1.41797 11.1963 1.4904 11.3712 1.61933 11.5001C1.74826 11.6291 1.92313 11.7015 2.10547 11.7015H18.2755L15.1267 14.8434C14.9987 14.9722 14.9268 15.1464 14.9268 15.328C14.9268 15.5097 14.9987 15.6839 15.1267 15.8127C15.2555 15.9408 15.4298 16.0127 15.6114 16.0127C15.793 16.0127 15.9673 15.9408 16.0961 15.8127L20.4686 11.4402C20.5274 11.3838 20.5743 11.316 20.6063 11.241C20.6382 11.1659 20.6547 11.0852 20.6547 11.0037C20.6547 10.9221 20.6382 10.8414 20.6063 10.7664C20.5743 10.6914 20.5274 10.6236 20.4686 10.5671L16.103 6.18774C16.0391 6.1233 15.963 6.07215 15.8792 6.03725C15.7955 6.00235 15.7056 5.98438 15.6148 5.98438C15.5241 5.98438 15.4342 6.00235 15.3504 6.03725C15.2667 6.07215 15.1906 6.1233 15.1267 6.18774Z" fill="#1D478E"/>
</svg>
