<svg width="200" height="200" viewBox="0 0 200 200" fill="none" xmlns="http://www.w3.org/2000/svg">
<circle cx="100" cy="100" r="72" stroke="#1D478E" stroke-width="56"/>
<mask id="path-2-inside-1_84_4661" fill="white">
<path d="M170.711 29.2893C156.725 15.3041 138.907 5.77999 119.509 1.92147C100.111 -1.93705 80.0042 0.0432864 61.7316 7.61205C43.459 15.1808 27.8412 27.9981 16.853 44.443C5.86489 60.8879 -2.98641e-06 80.2219 0 100C2.98642e-06 119.778 5.8649 139.112 16.853 155.557C27.8412 172.002 43.4591 184.819 61.7317 192.388C80.0043 199.957 100.111 201.937 119.509 198.079C138.907 194.22 156.725 184.696 170.711 170.711L131.112 131.112C124.958 137.265 117.119 141.455 108.584 143.153C100.049 144.851 91.2022 143.979 83.1625 140.649C75.1228 137.319 68.2512 131.68 63.4166 124.444C58.582 117.209 56.0015 108.702 56.0015 100C56.0015 91.2979 58.582 82.7913 63.4166 75.5557C68.2512 68.3202 75.1228 62.6808 83.1625 59.3507C91.2022 56.0205 100.049 55.1492 108.584 56.8469C117.119 58.5446 124.958 62.7351 131.112 68.8884L170.711 29.2893Z"/>
</mask>
<path d="M170.711 29.2893C156.725 15.3041 138.907 5.77999 119.509 1.92147C100.111 -1.93705 80.0042 0.0432864 61.7316 7.61205C43.459 15.1808 27.8412 27.9981 16.853 44.443C5.86489 60.8879 -2.98641e-06 80.2219 0 100C2.98642e-06 119.778 5.8649 139.112 16.853 155.557C27.8412 172.002 43.4591 184.819 61.7317 192.388C80.0043 199.957 100.111 201.937 119.509 198.079C138.907 194.22 156.725 184.696 170.711 170.711L131.112 131.112C124.958 137.265 117.119 141.455 108.584 143.153C100.049 144.851 91.2022 143.979 83.1625 140.649C75.1228 137.319 68.2512 131.68 63.4166 124.444C58.582 117.209 56.0015 108.702 56.0015 100C56.0015 91.2979 58.582 82.7913 63.4166 75.5557C68.2512 68.3202 75.1228 62.6808 83.1625 59.3507C91.2022 56.0205 100.049 55.1492 108.584 56.8469C117.119 58.5446 124.958 62.7351 131.112 68.8884L170.711 29.2893Z" stroke="white" stroke-width="112" mask="url(#path-2-inside-1_84_4661)"/>
</svg>
