<svg width="51" height="51" viewBox="0 0 51 51" fill="none" xmlns="http://www.w3.org/2000/svg">
<path d="M13.3552 15.0503L19.1904 9.21511C17.6133 7.95345 15.4054 8.11116 13.8284 9.53053C13.0398 10.3191 12.5667 11.423 12.5667 12.527C12.5667 13.3155 12.8821 14.2618 13.3552 15.0503Z" stroke="white" stroke-width="2.4" stroke-miterlimit="10" stroke-linecap="round" stroke-linejoin="round"/>
<path d="M21.7135 23.8821L42.0579 45.4881C43.635 47.0652 46.1583 47.0652 47.7354 45.4881C49.3125 43.911 49.4702 41.23 47.8931 39.6529L27.5487 18.0469L21.7135 23.8821Z" stroke="white" stroke-width="2.4" stroke-miterlimit="10" stroke-linecap="round" stroke-linejoin="round"/>
<path d="M10.6742 17.7315L19.0327 26.5631L30.23 15.2081L21.8714 6.53418L10.6742 17.7315Z" stroke="white" stroke-width="2.4" stroke-miterlimit="10" stroke-linecap="round" stroke-linejoin="round"/>
<path d="M34.015 16.1543C34.8036 15.3658 34.8036 14.1041 34.015 13.3156L23.9217 2.59141C23.1332 1.80286 21.7138 1.80286 20.9253 2.59141C20.1367 3.37995 20.1367 4.64161 20.9253 5.43015L31.0186 16.1543C31.8071 16.9429 33.2265 16.9429 34.015 16.1543Z" stroke="white" stroke-width="2.4" stroke-miterlimit="10" stroke-linecap="round" stroke-linejoin="round"/>
<path d="M19.9789 30.5059C20.7674 29.7173 20.7674 28.4557 19.9789 27.6671L9.88558 16.943C9.09704 16.1544 7.67767 16.1544 6.88913 16.943C6.10059 17.7315 6.10059 18.9932 6.88913 19.7817L16.9825 30.3482C17.771 31.2944 19.0327 31.2944 19.9789 30.5059Z" stroke="white" stroke-width="2.4" stroke-miterlimit="10" stroke-linecap="round" stroke-linejoin="round"/>
<path d="M3.26181 49.273H27.5489C28.1797 49.273 28.8105 48.6422 28.8105 48.0113V45.9611C28.8105 45.3303 28.1797 44.6995 27.5489 44.6995H3.26181C2.63098 44.6995 2.00015 45.3303 2.00015 45.9611V48.0113C2.00015 48.6422 2.47327 49.273 3.26181 49.273Z" stroke="white" stroke-width="2.4" stroke-miterlimit="10" stroke-linecap="round" stroke-linejoin="round"/>
<path d="M4.36567 44.6995H26.2871V41.5453C26.2871 40.7568 25.6563 40.126 24.8677 40.126H5.78504C4.9965 40.126 4.36567 40.7568 4.36567 41.5453V44.6995Z" stroke="white" stroke-width="2.4" stroke-miterlimit="10" stroke-linecap="round" stroke-linejoin="round"/>
</svg>
