<svg width="60" height="60" viewBox="0 0 60 60" fill="none" xmlns="http://www.w3.org/2000/svg">
<path d="M48.4813 7H12.5183C10.4633 7 8.84863 8.61466 8.84863 10.6697V28.2108C8.84863 30.2658 10.4633 31.8805 12.5183 31.8805H48.4813C50.5363 31.8805 52.151 30.2658 52.151 28.2108V10.6697C52.151 8.68806 50.4629 7 48.4813 7ZM50.6831 28.2108C50.6831 29.3851 49.6556 30.4126 48.4813 30.4126H12.5183C11.2706 30.4126 10.3165 29.3851 10.3165 28.2108V10.6697C10.3165 9.422 11.2706 8.46788 12.5183 8.46788H48.4813C49.6556 8.46788 50.6831 9.422 50.6831 10.6697V28.2108Z" fill="white"/>
<path d="M47.2342 19.7707C46.5737 19.7707 46.1333 19.4037 46.1333 19.1835C46.1333 18.9634 46.5737 18.5964 47.2342 18.5964C47.4544 18.5964 47.6746 18.523 47.8214 18.3028C47.9682 18.156 48.0416 17.9358 47.9682 17.7157C47.748 16.6148 47.381 15.5872 46.7205 14.7065C46.5737 14.5597 46.4269 14.4129 46.2067 14.4129C45.9865 14.4129 45.7663 14.4863 45.6196 14.6331C45.1058 15.1469 44.5187 15.2203 44.3719 15.0001C44.2251 14.8533 44.2251 14.2662 44.7388 13.7524C44.8856 13.6056 44.959 13.3854 44.959 13.1652C44.959 12.9451 44.8122 12.7249 44.6654 12.6515C43.7847 11.9909 42.7572 11.624 41.6563 11.4038C41.4361 11.3304 41.2159 11.4038 41.0691 11.5506C40.9224 11.6974 40.7756 11.9175 40.7756 12.1377C40.7756 12.7983 40.4086 13.312 40.1884 13.312C39.9682 13.312 39.6013 12.8717 39.6013 12.1377C39.6013 11.9175 39.4545 11.6974 39.3077 11.5506C39.1609 11.4038 38.9407 11.3304 38.7205 11.4038C37.6196 11.624 36.5921 11.9909 35.7114 12.6515C35.5646 12.7983 35.4178 12.9451 35.4178 13.1652C35.4178 13.3854 35.4912 13.6056 35.638 13.7524C36.1518 14.2662 36.1518 14.8533 36.005 15.0001C35.8582 15.1469 35.271 15.0735 34.7573 14.6331C34.6105 14.4863 34.3903 14.4129 34.1701 14.4129C33.9499 14.4129 33.8032 14.5597 33.6564 14.7065C32.9958 15.5872 32.6289 16.6148 32.4087 17.7157C32.4087 17.9358 32.4087 18.156 32.5555 18.3028C32.7023 18.4496 32.849 18.5964 33.0692 18.5964C33.7298 18.5964 34.1701 18.9634 34.1701 19.1835C34.1701 19.4037 33.7298 19.7707 33.0692 19.7707C32.849 19.7707 32.6289 19.9175 32.5555 20.0643C32.4087 20.211 32.3353 20.4312 32.4087 20.6514C32.6289 21.7523 32.9958 22.7064 33.6564 23.6606C33.8032 23.8073 33.9499 23.9541 34.1701 23.9541C34.3903 23.9541 34.6105 23.8807 34.7573 23.7339C35.271 23.2936 35.8582 23.2202 36.005 23.367C36.1518 23.5138 36.0784 24.1009 35.638 24.6147C35.4912 24.7615 35.4178 24.9816 35.4912 25.2018C35.4912 25.422 35.638 25.5688 35.7848 25.7156C36.6655 26.3761 37.693 26.7431 38.7939 26.9633C39.0141 26.9633 39.2343 26.9633 39.3811 26.8165C39.5279 26.6697 39.6747 26.4495 39.6747 26.3027C39.6747 25.5688 40.0416 25.2018 40.2618 25.2018C40.482 25.2018 40.849 25.6422 40.849 26.3027C40.849 26.5229 40.9224 26.7431 41.1425 26.8165C41.2893 26.8899 41.4361 26.9633 41.5829 26.9633C41.6563 26.9633 41.6563 26.9633 41.7297 26.9633C42.8306 26.7431 43.7847 26.3027 44.7388 25.7156C44.8856 25.5688 45.0324 25.422 45.0324 25.2018C45.0324 24.9816 44.959 24.7615 44.8122 24.6147C44.3719 24.1009 44.2985 23.5138 44.4453 23.367C44.592 23.2202 45.1792 23.2936 45.693 23.7339C45.8397 23.8807 46.0599 23.9541 46.2801 23.9541C46.5003 23.9541 46.7205 23.8073 46.7939 23.6606C47.4544 22.7798 47.8214 21.7523 48.0416 20.6514C48.115 20.4312 48.0416 20.211 47.8948 20.0643C47.6746 19.8441 47.4544 19.7707 47.2342 19.7707ZM45.8397 22.1927C44.8856 21.6789 43.8581 21.7523 43.271 22.3395C42.6104 23 42.6104 23.9541 43.0508 24.9083C42.6838 25.055 42.3168 25.2752 41.9499 25.3486C41.6563 24.3211 40.9224 23.6606 40.0416 23.6606C39.1609 23.6606 38.427 24.3211 38.1334 25.3486C37.7664 25.2752 37.3995 25.055 37.0325 24.9083C37.5462 24.0275 37.4728 23 36.8123 22.3395C36.2252 21.6789 35.1976 21.6789 34.2435 22.1193C34.0967 21.7523 33.8766 21.3853 33.8032 21.0184C34.8307 20.7248 35.4912 19.9909 35.4912 19.1101C35.4912 18.2294 34.8307 17.4955 33.8032 17.2019C33.9499 16.8349 34.0967 16.468 34.2435 16.101C35.1976 16.6148 36.1518 16.5414 36.8123 15.9542C37.4728 15.2937 37.4728 14.3395 36.9591 13.3854C37.3261 13.2386 37.693 13.0185 38.06 12.9451C38.3536 13.9726 39.0875 14.6331 39.9682 14.6331C40.849 14.6331 41.5829 13.9726 41.8765 12.9451C42.2434 13.0919 42.6104 13.2386 42.9774 13.3854C42.4636 14.3395 42.537 15.2937 43.1242 15.9542C43.7113 16.6148 44.7388 16.6148 45.693 16.101C45.8397 16.468 45.9865 16.8349 46.1333 17.2019C45.1058 17.4955 44.4453 18.2294 44.4453 19.1101C44.4453 19.9909 45.1058 20.7248 46.1333 21.0184C46.2067 21.4587 46.0599 21.8257 45.8397 22.1927Z" fill="white"/>
<path d="M43.2709 19.1098C43.2709 20.8712 41.8764 22.2657 40.1149 22.2657C38.3535 22.2657 36.959 20.8712 36.959 19.1098C36.959 17.3483 38.3535 15.9539 40.1149 15.9539C41.8764 15.9539 43.2709 17.4217 43.2709 19.1098Z" fill="white"/>
<path d="M13.399 25.5686C13.7659 25.7154 14.2063 25.5686 14.3531 25.2017L16.2613 20.798L18.7567 27.1833C18.8301 27.4035 19.0503 27.6237 19.3439 27.6237C19.4173 27.6237 19.4173 27.6237 19.4907 27.6237C19.7108 27.6237 19.931 27.5503 20.0778 27.4035L28.9585 17.2751V19.3302C28.9585 19.7705 29.252 20.0641 29.6924 20.0641C30.1328 20.0641 30.4263 19.6971 30.4263 19.3302V15.2935C30.4263 15.0733 30.3529 14.9265 30.2062 14.7798C30.0594 14.633 29.8392 14.5596 29.6924 14.5596H25.6557C25.2154 14.5596 24.9218 14.9265 24.9218 15.2935C24.9218 15.7339 25.2888 16.0274 25.6557 16.0274H28.0043L19.7108 25.4952L17.0687 18.5962C16.9953 18.3027 16.7017 18.1559 16.4081 18.1559C16.1146 18.1559 15.821 18.3027 15.7476 18.5962L13.1054 24.6879C12.8852 24.9815 13.032 25.4219 13.399 25.5686Z" fill="white"/>
<path d="M19.8582 37.6786C19.8582 39.8804 18.0967 41.6419 15.8949 41.6419C13.6931 41.6419 11.9316 39.8804 11.9316 37.6786C11.9316 35.4768 13.6931 33.7153 15.8949 33.7153C18.0967 33.7153 19.8582 35.4768 19.8582 37.6786Z" fill="white"/>
<path d="M30.4999 41.6419C32.6887 41.6419 34.4632 39.8674 34.4632 37.6786C34.4632 35.4897 32.6887 33.7153 30.4999 33.7153C28.311 33.7153 26.5366 35.4897 26.5366 37.6786C26.5366 39.8674 28.311 41.6419 30.4999 41.6419Z" fill="white"/>
<path d="M49.1419 37.6786C49.1419 39.8804 47.3804 41.6419 45.1786 41.6419C42.9768 41.6419 41.2153 39.8804 41.2153 37.6786C41.2153 35.4768 42.9768 33.7153 45.1786 33.7153C47.3804 33.7153 49.1419 35.4768 49.1419 37.6786Z" fill="white"/>
<path d="M53.9861 52.2841L52.2246 45.6052C51.7843 43.9906 50.3898 42.8896 48.7017 42.8896H41.6559C40.0413 42.8896 38.5734 43.9906 38.133 45.6052L37.8395 46.5593L37.5459 45.6052C37.1055 43.9906 35.711 42.8896 34.023 42.8896H26.9772C25.3625 42.8896 23.8946 43.9906 23.4543 45.6052L23.1607 46.6327L22.8671 45.6052C22.4268 43.9906 21.0323 42.8896 19.3442 42.8896H12.2984C10.6838 42.8896 9.21588 43.9906 8.77551 45.6052L7.01406 52.2841C6.94067 52.651 7.16085 53.0914 7.52782 53.1648C7.89479 53.2382 8.33515 53.018 8.40854 52.651L10.17 45.9722C10.3902 45.0181 11.2709 44.3575 12.225 44.3575H19.2708C20.2249 44.3575 21.1057 45.0181 21.3259 45.9722L23.0873 52.651C23.1607 52.9446 23.4543 53.1648 23.8212 53.1648C23.8946 53.1648 23.968 53.1648 24.0414 53.1648C24.4084 53.0914 24.702 52.651 24.5552 52.2841L23.7478 49.3483L24.7754 45.9722C24.9955 45.0181 25.8763 44.3575 26.8304 44.3575H33.8762C34.8303 44.3575 35.711 45.0181 36.0046 45.9722L37.0321 49.2015L36.3716 52.2841C36.2982 52.651 36.5184 53.0914 36.8853 53.1648C37.2523 53.2382 37.6927 53.018 37.7661 52.651L39.5275 45.9722C39.7477 45.0181 40.6284 44.3575 41.5825 44.3575H48.6283C49.5825 44.3575 50.4632 45.0181 50.6834 45.9722L52.4448 52.651C52.5182 52.9446 52.8118 53.1648 53.1788 53.1648C53.2522 53.1648 53.3255 53.1648 53.3989 53.1648C53.8393 53.0914 54.0595 52.7244 53.9861 52.2841Z" fill="white"/>
</svg>
