<svg width="20" height="12" viewBox="0 0 20 12" fill="none" xmlns="http://www.w3.org/2000/svg">
<path d="M14.1267 1.18774C14.0623 1.25165 14.0111 1.32769 13.9762 1.41146C13.9413 1.49524 13.9234 1.5851 13.9234 1.67586C13.9234 1.76662 13.9413 1.85648 13.9762 1.94026C14.0111 2.02404 14.0623 2.10007 14.1267 2.16399L17.2892 5.32649H1.10547C0.923132 5.32649 0.748264 5.39892 0.619333 5.52785C0.490402 5.65678 0.417969 5.83165 0.417969 6.01399C0.417969 6.19632 0.490402 6.37119 0.619333 6.50012C0.748264 6.62905 0.923132 6.70149 1.10547 6.70149H17.2755L14.1267 9.84336C13.9987 9.97217 13.9268 10.1464 13.9268 10.328C13.9268 10.5097 13.9987 10.6839 14.1267 10.8127C14.2555 10.9408 14.4298 11.0127 14.6114 11.0127C14.793 11.0127 14.9673 10.9408 15.0961 10.8127L19.4686 6.44024C19.5274 6.38377 19.5743 6.31599 19.6063 6.24097C19.6382 6.16595 19.6547 6.08523 19.6547 6.00367C19.6547 5.92212 19.6382 5.8414 19.6063 5.76638C19.5743 5.69136 19.5274 5.62358 19.4686 5.56711L15.103 1.18774C15.0391 1.1233 14.963 1.07215 14.8792 1.03725C14.7955 1.00235 14.7056 0.984375 14.6148 0.984375C14.5241 0.984375 14.4342 1.00235 14.3504 1.03725C14.2667 1.07215 14.1906 1.1233 14.1267 1.18774Z" fill="#1D478E"/>
</svg>
