<svg width="27" height="26" viewBox="0 0 27 26" fill="none" xmlns="http://www.w3.org/2000/svg">
<g clip-path="url(#clip0_68_2359)">
<path d="M22.2878 3.25H4.95443C2.57109 3.25 0.621094 5.2 0.621094 7.58333V18.4167C0.621094 20.8 2.57109 22.75 4.95443 22.75H22.2878C24.6711 22.75 26.6211 20.8 26.6211 18.4167V7.58333C26.6211 5.2 24.6711 3.25 22.2878 3.25ZM24.0211 9.53333L15.4628 15.275C14.9211 15.6 14.2711 15.8167 13.6211 15.8167C12.9711 15.8167 12.3211 15.6 11.7794 15.275L3.22109 9.53333C2.78776 9.20833 2.67943 8.55833 3.00443 8.01667C3.32943 7.58333 3.97943 7.475 4.52109 7.8L13.0794 13.5417C13.4044 13.7583 13.9461 13.7583 14.2711 13.5417L22.8294 7.8C23.3711 7.475 24.0211 7.58333 24.3461 8.125C24.5628 8.55833 24.4544 9.20833 24.0211 9.53333Z" fill="white"/>
</g>
<defs>
<clipPath id="clip0_68_2359">
<rect width="26" height="26" fill="white" transform="translate(0.621094)"/>
</clipPath>
</defs>
</svg>
