<svg width="68" height="68" viewBox="0 0 68 68" fill="none" xmlns="http://www.w3.org/2000/svg">
<g clip-path="url(#clip0_145_284)">
<path d="M46.75 46.75V59.5H12.75V8.5H34V4.25H12.75C11.6228 4.25 10.5418 4.69777 9.7448 5.4948C8.94777 6.29183 8.5 7.37283 8.5 8.5V59.5C8.5 60.6272 8.94777 61.7082 9.7448 62.5052C10.5418 63.3022 11.6228 63.75 12.75 63.75H46.75C47.8772 63.75 48.9582 63.3022 49.7552 62.5052C50.5522 61.7082 51 60.6272 51 59.5V46.75H46.75Z" fill="#1D478E"/>
<path d="M62.7725 12.24L55.76 5.22753C55.1244 4.60456 54.27 4.25562 53.38 4.25562C52.49 4.25562 51.6356 4.60456 51 5.22753L21.25 34.9775V46.75H33.0012L62.7513 17C63.3742 16.3645 63.7232 15.51 63.7232 14.62C63.7232 13.7301 63.3742 12.8756 62.7513 12.24H62.7725ZM31.2375 42.5H25.5V36.7625L45.56 16.6813L51.3187 22.44L31.2375 42.5ZM54.315 19.4438L48.5563 13.685L53.38 8.86128L59.1387 14.62L54.315 19.4438Z" fill="#1D478E"/>
</g>
<defs>
<clipPath id="clip0_145_284">
<rect width="68" height="68" fill="white"/>
</clipPath>
</defs>
</svg>
