<svg width="60" height="60" viewBox="0 0 60 60" fill="none" xmlns="http://www.w3.org/2000/svg">
<path d="M3.65137 32.1946V33.4349V55.6225H16.2734V52.4927L16.3271 52.512C19.6263 53.6092 24.3447 54.5847 29.0078 56.2523L29.3545 56.3695L29.6963 56.2914C31.1617 55.9502 35.1103 54.7325 39.8183 53.2201C44.5264 51.7076 49.8972 49.9209 53.8906 48.5424C55.8016 47.8805 56.8293 45.743 56.1269 43.845C55.3889 41.9031 53.2481 41.0297 51.4248 41.5894C49.9062 42.0547 42.7792 44.2562 38.0996 45.6372C38.1437 44.3025 38.4946 42.859 37.4111 42.0092L37.3525 41.9507L37.2793 41.9211C32.0194 38.7832 31.5737 38.3765 24.1787 34.446L23.832 34.275L23.4511 34.3141C20.9081 34.5869 16.5876 35.3021 16.2734 35.3542V32.1949L3.65137 32.1946ZM23.3389 36.8529C30.0937 40.4505 30.8694 40.9997 35.8633 43.9771C36.6732 44.6126 36.8889 45.3933 36.4004 46.0961C36.1381 46.4735 35.8634 46.623 35.4824 46.6866C35.1015 46.755 34.5754 46.6671 33.9736 46.4031C31.7247 45.3637 30.5011 44.7009 28.0166 43.3073L26.9277 42.6972L25.707 44.8749L26.7959 45.4851C29.2964 46.8875 30.6172 47.6188 32.9434 48.693H32.9628C33.9132 49.1164 34.9161 49.3188 35.9023 49.1516C36.3116 49.0832 36.5789 48.6657 36.9521 48.4633L36.9912 48.5758L38.1924 48.2336C42.8781 46.8614 50.5897 44.4744 52.1523 43.9953V43.9756C52.7429 43.7948 53.5408 44.0929 53.7783 44.7177C53.9993 45.3444 53.7111 45.9509 53.0703 46.1728C49.104 47.542 43.7438 49.3238 39.0517 50.8311C34.4773 52.3005 30.6064 53.4727 29.3887 53.7705C24.6957 52.1409 20.032 51.1132 17.1133 50.1425L16.2734 49.8736V37.8816L16.4834 37.8521C16.4834 37.8521 20.7984 37.151 23.3389 36.8529Z" fill="white"/>
<path d="M40.3506 3.63037C31.8174 3.63037 24.8623 10.5857 24.8623 19.1186C24.8623 27.6515 31.8174 34.5823 40.3506 34.5823C48.8838 34.5823 55.8193 27.6515 55.8193 19.1186C55.8193 10.5857 48.8838 3.63037 40.3506 3.63037ZM39.0811 10.7543H41.5811V12.0191V12.9225H43.7441H45.0039V15.4225H43.7441H38.1777V17.8589H45.0039V25.2955H41.5811V26.1939V27.4536H39.0811V26.1939V25.2955H36.9375H35.6777V22.7956H36.9375H42.5039V20.3589H35.6777V12.9225H39.0811V12.0191V10.7543Z" fill="white"/>
</svg>
